PathFileType	4	(X/Y/Z)	 s03c0201.trc
DataRate	CameraRate	NumFrames	NumMarkers	Units	OrigDataRate	OrigDataStartFrame	OrigNumFrames
200	200	5	52	mm	200	501	2000
Frame#	Time	racr			lacr			c7			jug			rlel			rdr			llel			ldr			s2			lic			ric			lasi			rasi			rpsi			lpsi			rgt			lgt			rth1			rth2			rth3			rth4			rlfc			rmfc			rsh1			rsh2			rsh3			rsh4			rlmal			rmmal			rcal			rtoe			rmt5			rmt1			lth1			lth2			lth4			lth3			llfc			lmfc			lsh1			lsh2			lsh3			lsh4			llmal			lmmal			lcal			ltoe			lmt1			lmt5			SBIKE			LBIKE			RBIKE			
		X1	Y1	Z1	X2	Y2	Z2	X3	Y3	Z3	X4	Y4	Z4	X5	Y5	Z5	X6	Y6	Z6	X7	Y7	Z7	X8	Y8	Z8	X9	Y9	Z9	X10	Y10	Z10	X11	Y11	Z11	X12	Y12	Z12	X13	Y13	Z13	X14	Y14	Z14	X15	Y15	Z15	X16	Y16	Z16	X17	Y17	Z17	X18	Y18	Z18	X19	Y19	Z19	X20	Y20	Z20	X21	Y21	Z21	X22	Y22	Z22	X23	Y23	Z23	X24	Y24	Z24	X25	Y25	Z25	X26	Y26	Z26	X27	Y27	Z27	X28	Y28	Z28	X29	Y29	Z29	X30	Y30	Z30	X31	Y31	Z31	X32	Y32	Z32	X33	Y33	Z33	X34	Y34	Z34	X35	Y35	Z35	X36	Y36	Z36	X37	Y37	Z37	X38	Y38	Z38	X39	Y39	Z39	X40	Y40	Z40	X41	Y41	Z41	X42	Y42	Z42	X43	Y43	Z43	X44	Y44	Z44	X45	Y45	Z45	X46	Y46	Z46	X47	Y47	Z47	X48	Y48	Z48	X49	Y49	Z49	X50	Y50	Z50	X51	Y51	Z51	X52	Y52	Z52	
501	2.5050	545.188840	1377.470005	-129.748404	452.224647	1404.074366	-413.428799	423.279164	1463.219306	-252.402668	449.865084	1291.605005	-265.856594	547.201216	1176.413619	83.662355	734.655683	992.998540	-11.424598	493.577182	1148.438840	-524.444687	732.023722	986.140191	-410.629966	-116.561074	1222.062136	-186.032816	43.007327	1258.301885	-364.598546	69.237259	1226.349128	-6.612578	67.226422	1187.719722	-336.120316	79.694743	1159.082766	-51.874373	-81.502057	1264.916080	-130.700324	-81.715059	1274.000075	-211.917505	-7.098743	1115.008707	1.869326	1.929114	1170.076235	-397.606688	103.362879	994.081598	0.730913	185.954629	961.699370	-4.720815	240.417503	896.454075	-15.895411	206.548766	990.499662	-14.384535	319.631009	797.335609	-51.581400	311.145064	786.706383	-173.926484	233.026798	653.633206	-28.540275	201.225416	573.015671	-48.215897	133.683309	515.699913	-48.217098	226.804901	561.519321	-74.367930	47.330032	419.141596	-69.724880	74.404556	416.888214	-151.980240	-24.076803	415.919718	-105.985011	213.571839	213.096840	-116.844562	114.230615	275.573594	-46.048754	150.469896	266.586702	-154.075029	123.050450	1064.258855	-421.242596	202.553515	1030.424195	-420.330669	224.190137	1057.817463	-408.371227	256.162818	958.813282	-416.982946	368.219249	881.638468	-397.043721	364.683066	861.872809	-274.763425	323.650286	715.119375	-431.708982	325.725770	631.166347	-416.868865	284.198103	550.417360	-419.030642	353.535138	625.388445	-389.236095	251.724940	424.168602	-408.864861	272.175653	442.866814	-311.263944	196.904269	353.289511	-367.295349	492.214873	447.035479	-352.149403	401.395455	413.412126	-310.299580	391.082053	388.403522	-429.411416	-212.396756	946.276814	-225.990597	-4.580324	84.013984	-432.893086	-8.900986	80.855924	-32.494554	
502	2.5100	546.531859	1377.302182	-129.782388	453.712433	1403.849920	-413.589077	424.733337	1462.900676	-252.533254	451.447232	1291.337745	-265.892999	547.592067	1176.469881	83.867787	734.749928	993.013958	-10.993467	493.701758	1148.356537	-525.812997	731.685477	986.244473	-410.999122	-115.447258	1222.576882	-187.409338	44.754438	1257.854326	-365.479784	70.002931	1226.338904	-7.370007	68.683070	1187.251598	-336.934642	80.341518	1159.042885	-52.457186	-80.414329	1265.351164	-131.752578	-80.375628	1274.282097	-213.134832	-6.844753	1115.710386	1.452164	3.382760	1169.095308	-398.261294	103.872465	995.044612	1.026487	186.705183	963.258807	-3.924868	241.620971	898.313416	-14.890296	207.168454	992.467163	-13.397201	321.373712	799.657703	-50.377620	314.316752	789.293042	-173.031592	233.468046	656.854993	-27.687898	203.394307	577.224131	-46.202460	132.704400	520.036402	-47.995771	226.384521	564.821093	-73.762232	45.401217	424.512912	-69.808551	72.532563	422.195889	-152.114668	-26.173288	421.163970	-106.290432	211.604231	218.408084	-116.837388	112.291101	280.994795	-46.191742	147.782275	272.603501	-155.581289	123.944774	1061.795366	-421.298749	203.080154	1027.206421	-420.185300	224.949031	1054.336752	-408.207081	255.934861	954.958427	-416.421975	367.083384	876.941017	-395.943686	362.232433	856.723845	-274.407752	323.821768	709.923305	-431.448019	326.409148	625.913643	-416.645445	285.597839	544.988919	-419.218418	354.756398	620.981665	-389.433468	253.856556	418.552845	-409.620446	274.573501	437.970564	-311.710872	198.897177	347.516419	-368.374743	493.953452	441.923471	-351.869783	403.025135	408.081833	-310.494471	393.325860	383.046731	-429.539979	-212.372623	946.269987	-226.023002	-4.571781	84.004484	-432.890777	-8.893634	80.851586	-32.490954	
503	2.5150	547.902335	1377.222483	-129.649586	455.295884	1403.760586	-413.555735	426.198638	1462.696834	-252.556494	453.071092	1291.191675	-265.840929	548.045456	1176.471358	84.044708	734.871927	993.022416	-10.580070	494.069086	1148.234659	-526.684526	731.340667	986.381860	-411.360853	-114.107334	1222.667950	-184.287614	48.769939	1258.653282	-370.533076	70.689244	1226.353425	-8.179351	70.199942	1186.625420	-337.714522	81.011292	1159.020157	-53.153005	-79.510487	1265.883544	-132.817581	-78.979079	1274.580529	-214.429320	-6.489738	1116.439316	0.961951	5.931243	1167.587250	-399.069206	104.449073	996.363181	1.350629	187.535369	964.973876	-3.185318	242.901355	900.383237	-13.844889	207.842203	993.966641	-13.233613	323.146883	802.044907	-49.004262	316.701031	791.779445	-171.910858	233.941845	660.170510	-26.930412	203.149403	581.001714	-45.584689	131.772408	524.481420	-47.771758	225.993263	568.293605	-73.177711	43.616142	429.891213	-69.950254	70.498231	427.684587	-152.299708	-28.123104	426.481375	-106.432923	209.789100	224.034859	-116.961298	110.456261	286.554644	-46.355148	144.201444	279.258010	-157.705065	124.866107	1059.226360	-421.319128	203.594650	1023.840653	-420.025476	225.764441	1050.790527	-408.108004	255.635534	951.049728	-415.949280	365.824384	872.167226	-394.866543	360.461791	851.543431	-273.011273	323.745767	704.793846	-431.105846	326.906969	620.825569	-416.363477	286.844411	539.621858	-419.322962	355.282866	616.000996	-389.070402	255.723072	412.940445	-410.257106	277.936777	431.989013	-311.013834	200.766341	341.759724	-369.308942	495.746677	436.437294	-351.456725	404.550401	402.691434	-310.677648	395.386103	377.609468	-429.710911	-212.159241	946.249087	-226.366847	-4.564106	83.987753	-432.884357	-8.884609	80.861267	-32.497122	
504	2.5200	549.341545	1377.156344	-129.342736	456.893868	1403.774273	-413.384846	427.668480	1462.574003	-252.565029	454.687977	1291.122260	-265.738669	548.628619	1176.523559	84.040915	734.978024	992.994777	-10.218907	494.278646	1148.394135	-527.820530	730.987925	986.519802	-411.648572	-113.105408	1223.290827	-190.442865	50.545234	1258.009621	-371.308621	71.419954	1226.380284	-9.108572	71.576524	1186.094265	-338.305236	82.042849	1159.113699	-53.623781	-78.399995	1266.363071	-134.017721	-77.602628	1274.771649	-215.745619	-6.067687	1117.194144	0.474445	7.250092	1166.499842	-399.959603	105.039694	997.595547	1.644608	188.395253	966.892309	-2.527043	244.275745	902.594438	-12.898687	208.636744	996.204533	-12.343448	325.014492	804.569259	-47.769137	319.123216	794.336826	-170.726140	234.554230	663.336154	-26.203790	200.544099	583.940731	-46.345685	130.917009	529.001917	-47.583874	225.655062	571.817305	-72.614339	41.842864	435.310495	-70.220527	68.674751	432.911915	-152.688608	-30.024889	431.879049	-106.879137	207.305250	228.720581	-117.398954	108.632138	292.030847	-46.467536	140.417253	285.249346	-159.946947	125.667490	1056.723083	-421.611524	204.027034	1020.441565	-419.912686	226.435918	1047.203942	-408.105158	255.259089	947.003718	-415.319699	364.412242	867.335789	-393.824584	358.929581	846.488043	-271.231652	323.467706	699.740303	-430.728884	327.498138	615.468579	-415.748627	287.784700	534.024747	-419.109215	355.358468	611.301860	-389.290931	257.471155	407.320403	-410.792735	279.368115	426.585094	-311.372612	202.457848	336.081452	-370.067237	497.366844	431.040146	-351.250101	405.966477	397.245305	-310.848372	397.222089	372.178309	-429.857864	-212.084903	946.284767	-226.399193	-4.565785	83.986770	-432.895213	-8.880300	80.840691	-32.507359	
505	2.5250	550.718529	1377.205578	-128.961627	458.580813	1403.894117	-413.121031	429.158704	1462.572374	-252.557672	456.297823	1291.167606	-265.590285	549.054726	1176.514750	84.330091	734.903268	993.053118	-10.155305	494.548805	1148.666463	-528.964761	730.709416	986.533135	-411.680446	-111.832110	1223.713597	-191.936245	52.482926	1257.353478	-372.203716	72.123465	1226.443359	-10.061516	73.324614	1185.754638	-339.527838	82.810376	1159.241963	-54.193793	-77.519806	1266.866657	-135.177749	-76.261779	1275.070174	-217.102792	-5.620631	1118.036587	-0.101849	8.833031	1165.315659	-400.698001	105.705859	998.998672	1.910113	189.260372	968.891863	-2.035892	245.639635	904.927819	-11.958928	209.252467	997.981917	-12.481927	326.890163	807.168568	-46.443689	321.423227	796.860016	-169.608069	235.381022	666.620207	-25.459032	200.476194	587.636419	-45.887713	130.210287	533.566771	-47.405520	224.619178	575.186587	-72.677454	40.195084	440.733229	-70.537968	66.517176	438.330609	-153.117901	-31.644783	437.218101	-107.176243	206.775886	235.206448	-116.628780	107.004150	297.649825	-46.600528	137.553080	291.551492	-161.427921	126.401525	1054.031259	-421.933321	204.335685	1016.922416	-419.839966	227.031280	1043.506400	-408.164071	254.723512	942.910391	-414.762737	362.834935	862.327913	-392.797315	357.194240	841.714155	-269.726552	323.034052	694.688436	-430.272768	327.665740	610.442113	-415.458619	288.542484	528.747963	-419.136833	355.465060	606.429432	-388.928111	258.923455	401.793592	-411.265021	280.531422	420.642870	-311.679846	203.971263	330.428093	-370.730287	498.868560	425.163123	-351.001103	407.268124	391.746442	-311.004793	398.906031	366.652703	-429.878023	-212.038338	946.286926	-226.468151	-4.558115	83.978559	-432.905660	-8.883977	80.846819	-32.507738	
